<svg version="1" xmlns="http://www.w3.org/2000/svg" width="684" height="684" viewBox="0 0 513.000000 513.000000"><path d="M500.8 53.9c-9.7 4.1-17.3 7.4-23.3 10.1-2.2 1-6.7 3-10 4.5-27.1 12.1-67 33.4-96.5 51.3-22.7 13.9-47.8 30.7-67.9 45.5l-11.5 8.4-6.8-11.6c-3.7-6.4-7.2-12.3-7.8-13.1-.5-.8-2.9-4.8-5.2-8.9-5.4-9.2-5.5-9.4-16.2-27.6C240.5 86.9 236 80.2 231 75.7c-20.4-18.4-51.8-17.6-71.4 1.8-7.8 7.7-11.7 15.6-16.3 32.7-1.9 7.3-3.6 14-3.8 14.8-.2.8-2.1 8-4.3 16-2.2 8-5.2 18.8-6.6 24-1.3 5.2-6.8 25.7-12.1 45.5s-10.6 39.4-11.6 43.5c-1.1 4.1-3.5 13.1-5.4 20-1.9 6.9-4.1 15-4.9 18-.8 3-6 22.6-11.6 43.5s-10.3 38.7-10.5 39.6c-.2.8-1.1 4-2 7-3.7 11.7-2.4 29.7 2.8 39.3 9.9 18.5 27.2 29.1 47.2 28.8 6.1-.1 12-1.2 25-4.7 9.4-2.5 21.3-5.7 26.5-7.1 5.2-1.4 10.2-2.8 11-2.9.8-.2 17.5-4.7 37-10s36.2-9.8 37-10c2.7-.6 36.2-9.5 49-13.1 6.9-1.9 13.5-3.6 14.5-3.8 1.1-.3 10.6-2.8 21-5.6 10.5-2.9 19.8-5.4 20.8-5.5.9-.2 2.1-.6 2.5-.9.5-.3 1.9-.7 3.3-.9 1.3-.3 9.2-2.3 17.4-4.5 26.3-7.2 31-8.4 33-8.8 1.1-.2 5.2-1.9 9.1-3.9 11.4-5.6 20.7-16 25.4-28.3 6.6-17.4 2.6-38.3-10.1-52.6-5.9-6.5-4.4-5.6-91.5-56.9l-5.2-3 6.2-4.5c20.2-14.9 57.9-39.3 76.6-49.5 3-1.6 6.3-3.7 7.3-4.5.9-.8 1.7-1.2 1.7-.8 0 .4 1.4-.3 3.1-1.5 3.6-2.6 49.4-25.7 62.4-31.5l9-4.1V90.9c0-35.1-.2-40.4-1.5-40.5-.8-.1-5.4 1.5-10.2 3.5zM207 179c0 .4 4 7.5 8.8 15.6 4.9 8.2 11.8 19.8 15.4 25.9 3.5 6 9.6 16.4 13.5 23 7.2 12 11.8 17.8 18.3 22.7 2.7 2 49.4 30 60.5 36.2 9.5 5.4 18.5 11 18.5 11.5 0 .4-2.4 1.2-5.2 1.9-2.9.6-11.1 2.8-18.3 4.7-7.1 2-18.8 5.1-26 7-7.1 2-16.1 4.4-20 5.4-9.3 2.5-65.6 17.6-77 20.6-4.9 1.3-16.4 4.4-25.3 6.8-15.7 4.2-16.4 4.3-15.9 2.3.2-1.2 4.1-15.8 8.7-32.6 4.5-16.8 8.3-31.3 8.5-32.3.2-1 .9-3.2 1.4-5 .6-1.8 2.4-8.4 4.1-14.7 3.4-13 4.7-17.8 12.9-48.5 3.3-12.1 6.9-25.6 8.1-30 6.4-24.2 6.2-23.6 7.6-22.4.8.6 1.4 1.5 1.4 1.9z"/></svg>