<svg version="1" xmlns="http://www.w3.org/2000/svg" width="933.333" height="933.333" viewBox="0 0 700.000000 700.000000"><path d="M339 1.5c-11.2 3-22.4 12.4-25.6 21.3l-1.7 4.8-13.1 2.2c-14.9 2.4-14 2.3-26.1 5.1-9.5 2.2-30 8.4-35 10.6-1.6.7-8.1 3.4-14.3 5.9-11 4.5-28.5 13.2-36.3 18.2-2.1 1.3-4.1 2.4-4.3 2.4-.4 0-11.2 7.2-25 16.6l-3.1 2.1-8.9-15.1c-10.2-17.3-10.8-18.1-15.8-20.7-7.4-3.8-17.8-1-22.3 6-1.4 2.2-5.1 14.2-9.5 30.6-4 14.8-9.9 36.9-13.1 49-3.3 12.1-6.2 23.5-6.5 25.3-1 6.3 3.5 14.5 9.9 17.9 3.4 1.7 10.2 1.9 15.1.4 4.2-1.3 22.7-6.3 61.5-16.6 17.8-4.8 33.5-9.1 35-9.6 6.4-2.5 10.9-9.8 10.6-17.2-.4-8.2-3.3-11.2-20.9-21.6-8.6-5.1-15.6-9.6-15.6-9.9 0-1.3 24.4-16.9 36-23 13.5-7.2 24.4-11.9 39.5-17.4 11.7-4.2 37.9-11.3 46.1-12.4 2.7-.3 5.1-.8 5.4-.9.3-.2 3.1-.6 6.1-1l5.6-.7L316 59c3.5 5.4 9.2 10.6 15 13.5 17.3 8.8 40.2 2.5 49.8-13.6l3.3-5.6 5.7.9c55.6 8.6 99.3 26.9 141.2 58.9 31.3 24 56.2 52 76.2 86 17.9 30.2 33.5 73.4 37.3 103.4.2 1.6.7 4.6 1 6.5.6 3.4.4 3.7-4.2 6.7-23.8 15.5-24.3 48.7-.9 64.8l5.7 4-.5 5c-.8 6.4-2.4 15.7-3.6 21.5-.6 2.5-1.2 5.4-1.4 6.5-.6 3-2.6 10.6-3.5 13.5-.5 1.4-1.7 5.2-2.6 8.5-6.8 23.1-21.7 54.1-37.7 77.7-19 28.3-49 58.6-77.3 78-26 17.8-56.5 32.5-84.7 40.7-10.9 3.2-24.9 6.6-30.8 7.5-1.9.3-4.4.7-5.5 1-1.1.2-4.7.7-8.1 1.1l-6.1.7-3.2-5.1c-11.6-18.1-35.4-23.3-53.6-11.7-5.4 3.5-10.6 8.9-13 13.6-1.5 2.8-1.9 3-5.8 2.4-50.3-6.9-97.3-26.5-138.2-57.4-14-10.7-16.3-12.6-27-22.9-9.1-8.8-17-17.2-22.5-24.1-2.5-3-4.8-5.7-5.1-6-.3-.3-2.5-3.2-5-6.5-19.5-26.5-34.6-55.4-44.2-85-3.9-11.8-9.2-32.2-10.2-39.5-.4-2.4-.8-4.7-1-5-.2-.3-.7-3.5-1-7-.4-3.6-.9-6.8-1.1-7.2-.3-.4 1.2-1.4 3.1-2.4 6.3-3 13.2-10.1 16.7-17.2 3.1-6.3 3.3-7.3 3.3-17.2-.1-9.3-.4-11.1-2.8-16-6.9-14-20-22.3-35.2-22.2-24.8.1-42.2 21.7-37.5 46.5 2.1 11.4 9.9 21.1 21.6 27l5.1 2.6.8 6.3c.5 3.5.9 6.5 1 6.8 0 .3.4 2.7.9 5.3.9 5.8.9 5.8 3.5 17.3 19.3 85.8 75.9 162.7 153.1 208.1 32.8 19.2 75 34.6 110.5 40.2 3.9.6 8.1 1.3 9.5 1.5 1.4.3 2.8.5 3.3.5.4.1 1.8 2.6 3.2 5.6 4.5 10.3 16 19.2 27.2 21.3 5.8 1 16.6.8 18.5-.5.7-.4 1.5-.8 1.8-.8 2-.1 10.6-5.3 13.8-8.3 4.3-4.1 8.8-10.8 9.7-14.5.6-2.2 1.4-2.6 7.3-3.3 3.7-.4 6.9-.8 7.2-.9 2.5-.6 7.2-1.5 10.5-2 7-1 31.7-7.5 42.5-11.2 48.2-16.3 90.4-42.5 125.5-77.8 13.3-13.3 17.2-17.6 23.1-25 2.1-2.8 4.1-5.2 4.4-5.5.3-.3 3-3.9 6-8 21.1-28.5 37.6-61.3 48.5-96 4.4-14.1 9.4-35.5 11-47.2.3-2.4.8-5.2 1-6.3.2-1.1.4-2.9.4-4 .1-1.4 1.7-2.7 5.8-4.4 9.4-4.1 16.7-12.6 20.6-24 1.4-3.9 1.6-16 .4-21-2.4-9.2-10.9-19.4-20.6-24.3-5.9-3-6.5-3.6-6.8-6.8-.6-6-4.2-23.9-7.4-36.5-11.9-47.4-36.7-94.9-69.1-132.3-6.6-7.5-28-28.8-34-33.7-3.3-2.8-6.6-5.5-7.2-6-16.6-15.1-53-36.7-81-48.2-27.4-11.3-64.7-21.1-84.4-22.2-1.7-.1-2.9-1.5-4.9-5.7-4.6-9.8-15.5-18.8-25.3-20.9-5.9-1.3-14.3-1.3-19 0zm18.7 28.9c2.6 2.8 3.3 4.4 3.3 7.7 0 10.1-10.3 16.4-18.7 11.4-5.3-3.1-7.6-11-4.9-16.3 2.8-5.4 6.4-7.5 12-6.9 4.1.4 5.5 1.1 8.3 4.1zM133.6 106c4.2 7.2 8.9 14.1 10.4 15.4 1.6 1.3 8.5 5.6 15.5 9.7 9.5 5.6 12.2 7.5 10.8 8-5.4 2.1-61.6 17-62 16.5-.3-.2 2.1-10 5.2-21.8 8.3-30.9 8.5-31.8 9.7-37 .6-2.6 1.4-4.5 1.9-4.3.4.3 4.2 6.4 8.5 13.5zM46.3 338.4c7.3 4.9 6.1 17.3-2.1 21.2-7 3.3-16.2-.7-17.7-7.8-2.7-12.1 9.3-20.2 19.8-13.4zm622.9 0c3.2 2.1 4.8 5.7 4.8 10.7 0 3.1-.7 4.7-3.3 7.5-6.2 6.8-16.8 5.1-20.3-3.2-5.1-12.3 7.6-22.4 18.8-15zM355.1 650.7c6.6 3.9 7.7 14 2.1 19.6-5.9 5.9-16.5 4-19.7-3.6-2.6-6.2-.3-13.9 5-16.6 3.2-1.5 9.4-1.3 12.6.6z"/><path d="M333 129.3c-.3.3-3.5.7-7.2 1.1-8.8.8-12.6 1.4-23.3 3.7-81.2 17.6-147.2 81.6-166.6 161.6-1.7 7-3.3 13.4-3.5 14.1-.2.7-1.6 1.7-3.1 2.2-12.9 4.7-22.9 16.6-24.9 29.5-1.1 7.7-1.1 8.6.3 14.8 1.7 7.5 4.5 12.8 9.6 18.4 4.3 4.6 12.9 10.3 15.8 10.3 1.2 0 2 2.1 3.3 8.7 15.3 78.8 76.4 145.6 153.8 167.9 24 6.9 36.8 8.7 61.8 8.8 21.6.1 29.2-.7 48.5-5 70.1-15.4 127.6-63.3 156.2-129.9 3.8-8.8 10-28.7 12.3-39.6l2.3-10.7 3.8-1.1c4.1-1.2 12.2-7 15.4-10.9 10.2-12.5 11.8-28.8 4.4-43.3-3.7-7.3-13.2-15.4-20.9-17.8-3.5-1.1-3.6-1.2-5.4-10.1-5.6-27.6-20.6-60.1-39.3-85.3-9-12-29.4-32.7-40.9-41.4-7.8-5.9-24.8-17.3-25.9-17.3-.3 0-2.2-1-4.3-2.3-15.7-9.6-51.9-21.9-71.3-24.1-3.1-.4-6.7-.9-8-1.2-3-.7-42.3-1.6-42.9-1.1zm33.4 26.1c28.9 2.1 61.2 12.8 86.8 28.9 13.5 8.5 22.7 15.9 34 27.1 25.6 25.4 42.2 54.3 51.7 89.8 2.9 10.6 2.7 12.4-.9 14.3-4.7 2.4-10.8 9.2-14 15.5-8.9 17.6-3 39.2 13.6 49.7 4.2 2.7 4.3 2.9 3.8 6.8-.9 5.9-7 26.3-10.5 35.2-20.2 51.2-64.5 93.3-117.6 111.6-22.7 7.8-40.4 10.6-66.3 10.2-19.3-.3-21.8-.5-31.5-2.5-2.7-.6-5.9-1.2-7-1.4-11.4-2.2-29-8.4-43-15.1-24.8-12-44.4-26.9-63.6-48.5-4.1-4.6-15.5-20.4-19.1-26.5-11.3-18.9-21.4-45-24.3-63.1-.6-3.6-.4-4.1 1.9-5.2 1.4-.6 4.7-3.1 7.2-5.4 18.9-17.4 16-47.6-5.9-61.5-2.9-1.8-3.7-2.9-3.2-4.3.3-1 .7-2.7.9-3.7 5.1-25.6 20-56.7 38.4-79.8 32.7-41.1 85-68.8 136.2-72.1 5.2-.4 9.6-.7 9.7-.8.3-.2 15.1.3 22.7.8zM148.6 338.1c4.7 2.4 7 11.1 4.2 16.2-2.6 4.9-8.7 7.7-14.1 6.3-3.3-.8-7.6-5.3-8.5-9-1.1-3.9.3-9.4 3.1-12.4 3.8-4.1 8.7-4.4 15.3-1.1zm417.2 0c2.5 1.5 5.2 6.6 5.2 9.7 0 12.9-16.4 17.8-23 6.9-7.1-11.6 6.1-23.9 17.8-16.6z"/><path d="M342.7 234.2c-12.5.9-15.1 1.4-25.2 4.3-30.9 9-57 30.7-71.3 59.4-5 10-9.7 24.6-11.2 35.2-1.2 8.1-1.6 26.4-.7 29.5.3 1.1.8 4 1.2 6.6.9 7.2 5.1 20.8 9.1 29.5 15.1 32.8 44.6 56.4 81.4 65 8 1.8 34.7 2.5 42.5 1 35.1-6.6 65.1-27.2 81.6-56.2 10.7-18.7 15-34.2 15.4-55.5.5-21.6-2.7-36.7-11.9-55.1-20.6-41.4-65.5-67.2-110.9-63.7zm18.6 26.2c40.4 5.1 72.7 37.3 78.2 78.1.7 5.5.8 21.2.1 22.3-.2.4-.7 2.8-1 5.4-3.7 27.3-27.1 56.4-54.2 67.2-13.5 5.4-34 8.1-46.9 6.1-28.2-4.5-52.7-21.1-66-44.8-24.4-43.8-9.8-97.7 33.5-123.1 16.3-9.5 36.8-13.6 56.3-11.2z"/></svg>