<svg xmlns="http://www.w3.org/2000/svg" viewBox="0 0 57 57"><defs><style>.cls-1{fill:#fff;}.cls-2{fill:#4a4b4d;}</style></defs><g id="Layer_2" data-name="Layer 2"><g id="Layer_1-2" data-name="Layer 1"><rect class="cls-1" width="57" height="57" rx="4"/><path class="cls-2" d="M28.49,20.36a8.14,8.14,0,1,0,8.13,8.13A8.14,8.14,0,0,0,28.49,20.36Zm0,14.46a6.33,6.33,0,1,1,6.32-6.33A6.33,6.33,0,0,1,28.49,34.82Z"/><path class="cls-2" d="M52.8,27.37A2.67,2.67,0,0,0,51,25.79,22.86,22.86,0,0,0,31,5.93l-.09-.25A2.71,2.71,0,0,0,28.38,4a2.6,2.6,0,0,0-1,.2A2.69,2.69,0,0,0,25.79,6a22.46,22.46,0,0,0-11,4.42L13.6,8.31a1.21,1.21,0,0,0-1.23-.6,1.23,1.23,0,0,0-1,.91l-1.82,6.8A1.24,1.24,0,0,0,10.72,17a1.1,1.1,0,0,0,.31,0l6.81-1.83a1.23,1.23,0,0,0,.31-2.26l-2-1.2A20.76,20.76,0,0,1,25.9,7.76h0A2.7,2.7,0,0,0,28.39,9.4a2.74,2.74,0,0,0,1-.19,2.7,2.7,0,0,0,1.48-1.47A20.92,20.92,0,0,1,49.22,25.91a2.71,2.71,0,0,0,0,5A20.93,20.93,0,0,1,30.88,49.25a2.71,2.71,0,0,0-2.5-1.65,2.78,2.78,0,0,0-1,.19,2.68,2.68,0,0,0-1.46,1.44A20.94,20.94,0,0,1,7.73,30.88a2.71,2.71,0,1,0-1.8.09A22.83,22.83,0,0,0,25.79,51c0,.1.06.19.09.29A2.71,2.71,0,0,0,28.39,53a2.56,2.56,0,0,0,1-.2A2.67,2.67,0,0,0,31,51.06,22.84,22.84,0,0,0,51.05,31a1.43,1.43,0,0,0,.27-.09A2.7,2.7,0,0,0,52.8,27.37ZM11.52,14.94l1.21-4.55.68,1.14.4.68a1.14,1.14,0,0,0,.44.43l.37.23,1.44.85ZM29.21,7.05a.87.87,0,0,1-.49.48.93.93,0,0,1-.33.07.9.9,0,0,1-.34-1.73,1,1,0,0,1,.34-.06.89.89,0,0,1,.82,1.24ZM7.59,28.49a.88.88,0,0,1-.55.72.8.8,0,0,1-.34.07.9.9,0,0,1-.83-.56.86.86,0,0,1-.06-.23.89.89,0,0,1,.56-.93.75.75,0,0,1,.33-.07.89.89,0,0,1,.83.56A.86.86,0,0,1,7.59,28.49ZM29.21,50.64a.91.91,0,0,1-.49.49.92.92,0,0,1-.33.06.89.89,0,0,1-.34-1.72,1,1,0,0,1,.34-.07.89.89,0,0,1,.82,1.24ZM51.12,28.73a.88.88,0,0,1-.48.48.86.86,0,0,1-.34.07A.89.89,0,0,1,50,27.56a.8.8,0,0,1,.34-.07.88.88,0,0,1,.89.87v.05A.8.8,0,0,1,51.12,28.73Z"/><path class="cls-2" d="M45.57,27.37a2.69,2.69,0,0,0-1.85-1.6,15.47,15.47,0,0,0-30.46,0,2.42,2.42,0,0,0-.35.12,2.7,2.7,0,0,0,.31,5.1,15.47,15.47,0,0,0,30.54,0l.33-.11A2.7,2.7,0,0,0,45.57,27.37ZM14.76,28.73a.9.9,0,0,1-.49.48.8.8,0,0,1-.34.07.89.89,0,0,1-.83-.56.86.86,0,0,1,0-.68.84.84,0,0,1,.48-.48.83.83,0,0,1,.34-.07.89.89,0,0,1,.83.56A.91.91,0,0,1,14.76,28.73ZM28.49,42.16A13.68,13.68,0,0,1,15,30.85a2.69,2.69,0,0,0,1.4-3.48,2.74,2.74,0,0,0-1.36-1.44,13.67,13.67,0,0,1,26.85,0,2.69,2.69,0,0,0-1.35,3.46A2.74,2.74,0,0,0,42,30.85,13.68,13.68,0,0,1,28.49,42.16ZM43.41,29.21a.83.83,0,0,1-.34.07.89.89,0,0,1-.83-.56.86.86,0,0,1,0-.68.84.84,0,0,1,.48-.48.8.8,0,0,1,.34-.07.9.9,0,0,1,.83.56.79.79,0,0,1,.06.29v.08a.79.79,0,0,1-.07.31A.84.84,0,0,1,43.41,29.21Z"/></g></g></svg>