<svg xmlns="http://www.w3.org/2000/svg" width="105" height="105" viewBox="0 0 105 105"><g transform="translate(-1650 -105)"><g transform="translate(-9533 -7802)"><g transform="translate(11213 7937)" fill="#fff" stroke="#4a4b4d" stroke-width="5"><circle cx="22.5" cy="22.5" r="22.5" stroke="none"/><circle cx="22.5" cy="22.5" r="20" fill="none"/></g><line y2="20.172" transform="translate(11235.587 7949.628)" fill="none" stroke="#4a4b4d" stroke-width="5"/><line y2="20.172" transform="translate(11245.801 7959.587) rotate(90)" fill="none" stroke="#4a4b4d" stroke-width="5"/></g><g transform="translate(1650 105)" fill="none" stroke="#4a4b4d" stroke-width="5"><circle cx="52.5" cy="52.5" r="52.5" stroke="none"/><circle cx="52.5" cy="52.5" r="50" fill="none"/></g><g transform="translate(59.045 56.045)"><g transform="translate(1664 122)" fill="#4a4b4d"><path d="M 15.97742366790771 29.95484352111816 C 12.2439136505127 29.95484352111816 8.73387336730957 28.50094413757324 6.093893527984619 25.86095428466797 C 3.453903675079346 23.22097396850586 2.000003576278687 19.71093368530273 2.000003576278687 15.97742366790771 C 2.000003576278687 12.2439136505127 3.453903675079346 8.73387336730957 6.093893527984619 6.093893527984619 C 8.73387336730957 3.453903675079346 12.2439136505127 2.000003576278687 15.97742366790771 2.000003576278687 C 19.71093368530273 2.000003576278687 23.22097396850586 3.453903675079346 25.86095428466797 6.093893527984619 C 28.50094413757324 8.73387336730957 29.95484352111816 12.2439136505127 29.95484352111816 15.97742366790771 C 29.95484352111816 19.71093368530273 28.50094413757324 23.22097396850586 25.86095428466797 25.86095428466797 C 23.22097396850586 28.50094413757324 19.71093368530273 29.95484352111816 15.97742366790771 29.95484352111816 Z" stroke="none"/><path d="M 15.97742366790771 4.000003814697266 C 12.77813339233398 4.000003814697266 9.770343780517578 5.245874404907227 7.50810432434082 7.50810432434082 C 5.245874404907227 9.770343780517578 4.000003814697266 12.77813339233398 4.000003814697266 15.97742366790771 C 4.000003814697266 19.17671394348145 5.245874404907227 22.18450355529785 7.50810432434082 24.44674301147461 C 9.770343780517578 26.7089729309082 12.77813339233398 27.95484352111816 15.97742366790771 27.95484352111816 C 19.17671394348145 27.95484352111816 22.18450355529785 26.7089729309082 24.44674301147461 24.44674301147461 C 26.7089729309082 22.18450355529785 27.95484352111816 19.17671394348145 27.95484352111816 15.97742366790771 C 27.95484352111816 12.77813339233398 26.7089729309082 9.770343780517578 24.44674301147461 7.50810432434082 C 22.18450355529785 5.245874404907227 19.17671394348145 4.000003814697266 15.97742366790771 4.000003814697266 M 15.97742366790771 3.814697265625e-06 C 24.801513671875 3.814697265625e-06 31.95484352111816 7.15333366394043 31.95484352111816 15.97742366790771 C 31.95484352111816 24.801513671875 24.801513671875 31.95484352111816 15.97742366790771 31.95484352111816 C 7.15333366394043 31.95484352111816 3.814697265625e-06 24.801513671875 3.814697265625e-06 15.97742366790771 C 3.814697265625e-06 7.15333366394043 7.15333366394043 3.814697265625e-06 15.97742366790771 3.814697265625e-06 Z" stroke="none" fill="#956c23"/></g><line x2="14" transform="translate(1672.5 138.5)" fill="none" stroke="#fff" stroke-width="4"/></g><g transform="translate(-14 -17)"><g transform="translate(1664 122)" fill="#4a4b4d"><path d="M 15.97742366790771 29.95484352111816 C 12.2439136505127 29.95484352111816 8.73387336730957 28.50094413757324 6.093893527984619 25.86095428466797 C 3.453903675079346 23.22097396850586 2.000003576278687 19.71093368530273 2.000003576278687 15.97742366790771 C 2.000003576278687 12.2439136505127 3.453903675079346 8.73387336730957 6.093893527984619 6.093893527984619 C 8.73387336730957 3.453903675079346 12.2439136505127 2.000003576278687 15.97742366790771 2.000003576278687 C 19.71093368530273 2.000003576278687 23.22097396850586 3.453903675079346 25.86095428466797 6.093893527984619 C 28.50094413757324 8.73387336730957 29.95484352111816 12.2439136505127 29.95484352111816 15.97742366790771 C 29.95484352111816 19.71093368530273 28.50094413757324 23.22097396850586 25.86095428466797 25.86095428466797 C 23.22097396850586 28.50094413757324 19.71093368530273 29.95484352111816 15.97742366790771 29.95484352111816 Z" stroke="none"/><path d="M 15.97742366790771 4.000003814697266 C 12.77813339233398 4.000003814697266 9.770343780517578 5.245874404907227 7.50810432434082 7.50810432434082 C 5.245874404907227 9.770343780517578 4.000003814697266 12.77813339233398 4.000003814697266 15.97742366790771 C 4.000003814697266 19.17671394348145 5.245874404907227 22.18450355529785 7.50810432434082 24.44674301147461 C 9.770343780517578 26.7089729309082 12.77813339233398 27.95484352111816 15.97742366790771 27.95484352111816 C 19.17671394348145 27.95484352111816 22.18450355529785 26.7089729309082 24.44674301147461 24.44674301147461 C 26.7089729309082 22.18450355529785 27.95484352111816 19.17671394348145 27.95484352111816 15.97742366790771 C 27.95484352111816 12.77813339233398 26.7089729309082 9.770343780517578 24.44674301147461 7.50810432434082 C 22.18450355529785 5.245874404907227 19.17671394348145 4.000003814697266 15.97742366790771 4.000003814697266 M 15.97742366790771 3.814697265625e-06 C 24.801513671875 3.814697265625e-06 31.95484352111816 7.15333366394043 31.95484352111816 15.97742366790771 C 31.95484352111816 24.801513671875 24.801513671875 31.95484352111816 15.97742366790771 31.95484352111816 C 7.15333366394043 31.95484352111816 3.814697265625e-06 24.801513671875 3.814697265625e-06 15.97742366790771 C 3.814697265625e-06 7.15333366394043 7.15333366394043 3.814697265625e-06 15.97742366790771 3.814697265625e-06 Z" stroke="none" fill="#956c23"/></g><line x2="14" transform="translate(1672.5 138.5)" fill="none" stroke="#fff" stroke-width="4"/></g></g></svg>