<svg xmlns="http://www.w3.org/2000/svg" viewBox="0 0 1024 600" width="1024" height="600" preserveAspectRatio="xMidYMid meet" style="width: 100%; height: 100%; transform: translate3d(0px, 0px, 0px);"><defs><clipPath id="__lottie_element_328"><rect width="1024" height="600" x="0" y="0"></rect></clipPath></defs><g clip-path="url(#__lottie_element_328)"><g transform="matrix(1,0,0,1,636.875,421.25)" opacity="1" style="display: block;"><g opacity="0.9999999999999959" transform="matrix(1,0,0,1,-380,-121)"><path fill="rgb(255,255,255)" fill-opacity="1" d=" M0,-256 C141.28640747070312,-256 256,-141.28640747070312 256,0 C256,141.28640747070312 141.28640747070312,256 0,256 C-141.28640747070312,256 -256,141.28640747070312 -256,0 C-256,-141.28640747070312 -141.28640747070312,-256 0,-256z"></path><path stroke-linecap="butt" stroke-linejoin="miter" fill-opacity="0" stroke-miterlimit="4" stroke="rgb(74,75,77)" stroke-opacity="1" stroke-width="0" d=" M0,-256 C141.28640747070312,-256 256,-141.28640747070312 256,0 C256,141.28640747070312 141.28640747070312,256 0,256 C-141.28640747070312,256 -256,141.28640747070312 -256,0 C-256,-141.28640747070312 -141.28640747070312,-256 0,-256z"></path></g></g><g transform="matrix(1,0,0,1,536.4169921875,43.75)" opacity="1" style="display: block;"><g opacity="1" transform="matrix(1,0,0,1,243.78500366210938,256.25)"><path fill="rgb(255,255,255)" fill-opacity="1" d=" M-0.06400000303983688,-256 C-0.06400000303983688,-256 -61.80500030517578,-190.21099853515625 -61.80500030517578,-190.21099853515625 C-61.80500030517578,-190.21099853515625 -150.51400756835938,-207.16299438476562 -150.51400756835938,-207.16299438476562 C-150.51400756835938,-207.16299438476562 -161.80499267578125,-117.55699920654297 -161.80499267578125,-117.55699920654297 C-161.80499267578125,-117.55699920654297 -243.53599548339844,-79.12899780273438 -243.53599548339844,-79.12899780273438 C-243.53599548339844,-79.12899780273438 -200.00100708007812,0 -200.00100708007812,0 C-200.00100708007812,0 -243.53599548339844,79.12899780273438 -243.53599548339844,79.12899780273438 C-243.53599548339844,79.12899780273438 -161.80499267578125,117.55799865722656 -161.80499267578125,117.55799865722656 C-161.80499267578125,117.55799865722656 -150.51400756835938,207.16299438476562 -150.51400756835938,207.16299438476562 C-150.51400756835938,207.16299438476562 -61.80500030517578,190.21200561523438 -61.80500030517578,190.21200561523438 C-61.80500030517578,190.21200561523438 -0.06400000303983688,256 -0.06400000303983688,256 C-0.06400000303983688,256 0.06400000303983688,256 0.06400000303983688,256 C0.06400000303983688,256 61.803001403808594,190.21200561523438 61.803001403808594,190.21200561523438 C61.803001403808594,190.21200561523438 150.51400756835938,207.16299438476562 150.51400756835938,207.16299438476562 C150.51400756835938,207.16299438476562 161.80299377441406,117.55799865722656 161.80299377441406,117.55799865722656 C161.80299377441406,117.55799865722656 243.53500366210938,79.12899780273438 243.53500366210938,79.12899780273438 C243.53500366210938,79.12899780273438 199.99899291992188,0 199.99899291992188,0 C199.99899291992188,0 243.53500366210938,-79.12899780273438 243.53500366210938,-79.12899780273438 C243.53500366210938,-79.12899780273438 161.80299377441406,-117.55699920654297 161.80299377441406,-117.55699920654297 C161.80299377441406,-117.55699920654297 150.51400756835938,-207.16299438476562 150.51400756835938,-207.16299438476562 C150.51400756835938,-207.16299438476562 61.803001403808594,-190.21099853515625 61.803001403808594,-190.21099853515625 C61.803001403808594,-190.21099853515625 0.06400000303983688,-256 0.06400000303983688,-256 C0.06400000303983688,-256 -0.06400000303983688,-256 -0.06400000303983688,-256z"></path></g></g></g></svg>