<svg xmlns="http://www.w3.org/2000/svg" viewBox="0 0 1048.07 216.92"><title>Asset 1</title><g id="Layer_2" data-name="Layer 2"><g id="Layer_1-2" data-name="Layer 1"><path d="M302.13,188.9c-18,0-32.36-6-42.78-17.82s-15.53-28.2-15.53-49.12v-6.34c0-13.08,2.33-24.74,6.93-34.64a53.81,53.81,0,0,1,20.39-23.54c8.82-5.52,19.13-8.31,30.64-8.31,16.47,0,30,4.46,40.12,13.25S358,83.52,359.37,98.89l.39,4.36H320.69l-.11-3.88c-.2-6.65-1.75-11.36-4.61-14s-7.69-4-14.19-4c-6.27,0-10.68,2.21-13.5,6.74-3.18,5.1-4.87,13.68-5,25.5v9c0,12.89,1.54,22.07,4.6,27.29,2.68,4.59,7.35,6.82,14.28,6.82,6.06,0,10.64-1.35,13.63-4s4.45-7,4.64-13.08l.13-3.87h38.78l-.19,4.19a51.08,51.08,0,0,1-7.85,25.61,47.72,47.72,0,0,1-20.19,17.34A67.32,67.32,0,0,1,302.13,188.9Zm-.35-131.77c-10,0-18.87,2.38-26.4,7.09A46,46,0,0,0,258,84.34c-4.11,8.85-6.19,19.37-6.19,31.28V122c0,18.92,4.55,33.66,13.52,43.83s21,15.11,36.79,15.11a59.49,59.49,0,0,0,25.54-5.25,39.88,39.88,0,0,0,16.87-14.44,41.78,41.78,0,0,0,6.22-17.47H328.1c-.82,6.48-3.17,11.49-7,14.92-4.5,4-10.87,6-18.95,6-9.87,0-17-3.63-21.19-10.78-3.83-6.55-5.69-16.8-5.69-31.33v-9.07c.18-13.54,2.22-23.22,6.23-29.66,4.34-7,11.17-10.52,20.3-10.52,8.57,0,15.17,2.08,19.61,6.17,3.82,3.51,6.14,8.8,6.92,15.75h22.55c-1.79-11.3-6.46-20.11-14.2-26.82C328,60.93,316.27,57.13,301.78,57.13Z"/><path d="M462.3,187.14H424.55V123.72c0-4-.73-6.92-2.11-8.52-1.55-1.8-4.91-2.18-7.44-2.18-4.17,0-7.11,1-8.94,3.13v71H368.39V43.93h37.67v44.7a33.21,33.21,0,0,1,20.29-6.49c11.67,0,20.69,3.6,26.8,10.72,6,6.93,9,17.06,9.15,30.12Zm-29.75-8H454.3V123c-.1-11.09-2.53-19.49-7.22-25s-11.36-7.93-20.73-7.93c-8.65,0-15.57,3.42-21.16,10.45l-7.13,9V51.93H376.39V179.14h21.67v-65.5l.65-1C402,107.59,407.48,105,415,105c6.12,0,10.66,1.67,13.5,5s4.05,7.66,4.05,13.75Z"/><path d="M523.93,188.9c-15.61,0-28.48-4.78-38.25-14.2s-14.77-21.87-14.77-36.9v-2.46c0-10.3,1.95-19.57,5.81-27.53a43.64,43.64,0,0,1,17.37-19c7.51-4.43,16.49-6.67,26.67-6.67,14.48,0,26.12,4.61,34.62,13.72s12.69,21.63,12.69,37.46v15.53H550.41L566.6,168l-1.84,2.54A42.05,42.05,0,0,1,547.44,184,57.48,57.48,0,0,1,523.93,188.9Zm-3.17-98.76c-8.73,0-16.34,1.87-22.61,5.56a35.35,35.35,0,0,0-14.23,15.59c-3.33,6.87-5,15-5,24v2.46c0,13,4,23.14,12.33,31.15s19,12,32.69,12a49.34,49.34,0,0,0,20.25-4.19,36,36,0,0,0,12.15-8.48l-8.52-10.07c-5.7,5.21-13,7.85-21.85,7.85-6.65,0-12.2-1.86-16.51-5.53a25.39,25.39,0,0,1-8.28-14.86l-.94-4.77h59.84v-7.53c0-13.73-3.55-24.5-10.54-32S533.1,90.14,520.76,90.14Zm-10.25,58.71a15.61,15.61,0,0,0,4.14,5.54C517.5,156.83,521.2,158,526,158c8.18,0,14.36-2.74,18.88-8.36l.65-.8ZM539,130.27H500.48l.66-4.56c2.44-17.1,11.92-20.69,19.45-20.69,5.8,0,10.41,1.73,13.7,5.14s4.88,8.08,4.73,13.92Zm-29-8h21a9.85,9.85,0,0,0-2.46-6.55c-1.75-1.82-4.36-2.7-7.95-2.7C516.77,113,512.29,114.18,510,122.27Z"/><path d="M722.65,187.14H684.9V123c0-5-.92-7.24-1.69-8.28-1-1.42-3.7-1.72-5.75-1.72a10,10,0,0,0-9,4.8v69.32H630.68V123.19c0-5.4-1-7.65-1.64-8.51-.76-1.07-2.82-1.66-5.8-1.66a10,10,0,0,0-9,5v69.16H576.54V83.9H612l.53,6.19c6.59-5.28,14.62-8,24-8,11.21,0,19.57,3.77,24.92,11.23,6.93-7.46,16.14-11.23,27.45-11.23,15,0,33,6.75,33.75,38.94Zm-29.75-8h21.75v-58c-.63-27.81-15-31-25.75-31s-19,4.11-24.68,12.58l-4.05,6-2.92-6.62c-3.56-8-10.34-12-20.72-12-10.18,0-18,3.73-24,11.4l-6.26,8L604.69,91.9H584.54v87.24h21.67V115.79l.53-.92c3.69-6.44,9.39-9.85,16.5-9.85,5.8,0,10,1.69,12.32,5,2.1,3,3.12,7.25,3.12,13.14v55.95h21.75V118.23l-.16-2.27.57-1A18.08,18.08,0,0,1,677.46,105c5.66,0,9.76,1.67,12.19,5,2.19,3,3.25,7.23,3.25,13Z"/><path d="M791.75,187.14h-38.9V82.83H715.09V51H830.21V82.83H791.75Zm-30.9-8h22.9V74.83h38.46V59H723.09V74.83h37.76Z"/><path d="M941.13,187.14H899.27l-7.48-23.95H855.34L848,187.14H806.26L856.2,51h34.62Zm-36-8h24.5L885.25,59H861.78L817.71,179.14H842l7.4-23.95h48.23Zm-12.39-39.8h-38.4l19.14-62Zm-27.56-8h16.7l-8.38-26.94Z"/><path d="M996.62,188.9A73.18,73.18,0,0,1,966.79,183c-9.1-4-16.07-9.67-20.74-16.77a44,44,0,0,1-7-24.6v-4h39v4c0,5.67,1.36,9.78,4,12.24s7.68,3.83,14.59,3.83c4.21,0,7.48-.85,9.72-2.51a7,7,0,0,0,2.83-6.08c0-3.3-1-5.66-3.28-7.42-1.94-1.53-6.23-4-15.65-7.18a167.08,167.08,0,0,1-20.21-8c-18-8.85-27.14-21.37-27.14-37.21a34.21,34.21,0,0,1,7-21.22c4.57-6,11-10.68,19.26-14a72.79,72.79,0,0,1,27-4.81,63.92,63.92,0,0,1,26.42,5.28A43.29,43.29,0,0,1,1041.32,70a40.71,40.71,0,0,1,6.75,23v4h-38.81V93c0-4.07-1.14-7.07-3.47-9.17s-5.84-3.29-10.31-3.29-8.18,1-10.65,2.84a7.24,7.24,0,0,0-3.22,6.1c0,.73,0,2.94,3.7,5.75,3.14,2.38,9,5,17.38,7.65a118.31,118.31,0,0,1,22.6,9.54c15.11,8.71,22.78,21,22.78,36.48,0,12.47-4.8,22.43-14.27,29.59C1024.68,185.4,1012.17,188.9,996.62,188.9ZM947.2,145.59a35.13,35.13,0,0,0,5.54,16.21c3.81,5.8,9.62,10.46,17.29,13.85a65.32,65.32,0,0,0,26.59,5.25c13.77,0,24.66-3,32.36-8.79,7.46-5.65,11.09-13.24,11.09-23.21,0-12.6-6.14-22.27-18.78-29.55a110.57,110.57,0,0,0-21-8.85c-9.38-3-15.85-5.92-19.77-8.9-4.55-3.45-6.86-7.53-6.86-12.12A15.27,15.27,0,0,1,980,77c3.9-3,9.11-4.47,15.5-4.47s11.71,1.8,15.65,5.34A18.18,18.18,0,0,1,1017,89h22.91a31.67,31.67,0,0,0-5.21-14.6,35.54,35.54,0,0,0-15.34-12.61,56.21,56.21,0,0,0-23.14-4.57,64.86,64.86,0,0,0-24,4.24C965.29,64.2,960,68,956.28,72.85a26,26,0,0,0-5.39,16.37c0,12.71,7.42,22.54,22.67,30a158,158,0,0,0,19.23,7.63c8.55,2.88,14.46,5.65,18.06,8.49a16.79,16.79,0,0,1,6.32,13.7,15,15,0,0,1-6.06,12.5c-3.65,2.71-8.53,4.09-14.49,4.09-9.1,0-15.64-1.94-20-5.94-3.63-3.33-5.78-8.07-6.42-14.13Z"/><path d="M184.05,103.45a11.91,11.91,0,0,0-8.18-7.08A68.51,68.51,0,0,0,41,96.38a13,13,0,0,0-1.53.5,12,12,0,0,0,1.36,22.61,68.51,68.51,0,0,0,135.21,0,13,13,0,0,0,1.45-.48A12,12,0,0,0,184.05,103.45ZM45.46,111.63a4,4,0,0,1-1.49.29,4,4,0,0,1-1.49-7.63A4,4,0,0,1,44,104a4,4,0,0,1,1.49,7.63Zm63,57.31a60.58,60.58,0,0,1-59.59-50.06A12,12,0,0,0,49,97.11a60.5,60.5,0,0,1,118.87,0,12,12,0,0,0,.16,21.71A60.59,60.59,0,0,1,108.43,168.94Zm68.19-59.44a4,4,0,0,1-2.16,2.13,4,4,0,0,1-1.49.29,4,4,0,0,1-1.5-7.63A4.12,4.12,0,0,1,173,104a4,4,0,0,1,3.67,2.47,3.66,3.66,0,0,1,.28,1.13h0a3.42,3.42,0,0,1,0,.55A4,4,0,0,1,176.62,109.5Z"/><path d="M108.43,72.44a36,36,0,1,0,36,36A36,36,0,0,0,108.43,72.44Zm0,64a28,28,0,1,1,28-28A28,28,0,0,1,108.43,136.44Z"/><path d="M216.05,103.45a11.92,11.92,0,0,0-7.84-7A101.17,101.17,0,0,0,119.43,8.55a8.94,8.94,0,0,0-.38-1.1,12,12,0,0,0-22.58,1.2A99.32,99.32,0,0,0,47.92,28.19l-5.39-9.13a5.49,5.49,0,0,0-10,1.37L24.43,50.54a5.49,5.49,0,0,0,5.31,6.91,5.21,5.21,0,0,0,1.41-.19L61.27,49.2a5.49,5.49,0,0,0,1.37-10l-9-5.3A91.54,91.54,0,0,1,97,16.64a12,12,0,0,0,22-.09A92.67,92.67,0,0,1,200.22,97a12,12,0,0,0,.11,22A92.67,92.67,0,0,1,119,200.33a12,12,0,0,0-22-.09A92.68,92.68,0,0,1,16.54,119a12,12,0,1,0-8,.41,101.19,101.19,0,0,0,87.92,88.81,11.38,11.38,0,0,0,.43,1.24,12,12,0,0,0,22.56-1.14,101.16,101.16,0,0,0,88.87-88.89,9.94,9.94,0,0,0,1.16-.4A12,12,0,0,0,216.05,103.45Zm-182.77-55,5.4-20.13,3,5,1.77,3a5.52,5.52,0,0,0,1.94,1.93l1.66,1L53.42,43ZM111.62,13.5a4,4,0,0,1-2.16,2.13,4,4,0,0,1-1.49.29,4,4,0,0,1-1.5-7.63A4.12,4.12,0,0,1,108,8a4,4,0,0,1,3.65,5.5ZM15.9,108.44a4,4,0,0,1-2.44,3.19,4,4,0,0,1-1.49.29,4,4,0,0,1-3.67-2.47,3.67,3.67,0,0,1-.26-1,4,4,0,0,1,2.44-4.15A4,4,0,0,1,12,104a4,4,0,0,1,3.93,4.44Zm95.72,98.06a4,4,0,0,1-2.16,2.13,4,4,0,0,1-1.49.29,4,4,0,0,1-1.5-7.63A4.12,4.12,0,0,1,108,201a4,4,0,0,1,3.65,5.5Zm97-97a4,4,0,0,1-2.16,2.13,4,4,0,0,1-1.49.29,4,4,0,0,1-1.5-7.63A4.12,4.12,0,0,1,205,104a4,4,0,0,1,3.67,2.47,3.66,3.66,0,0,1,.28,1.13,3.53,3.53,0,0,1,0,.56A4,4,0,0,1,208.62,109.5Z"/></g></g></svg>