<svg xmlns="http://www.w3.org/2000/svg" viewBox="0 0 1049.05 244"><defs><style>.cls-1{fill:#4a4b4d;}</style></defs><title>Asset 6</title><g id="Layer_2" data-name="Layer 2"><g id="Layer_1-2" data-name="Layer 1"><path class="cls-1" d="M400.88,154q-1.5,20.69-15.28,32.56t-36.31,11.89q-24.65,0-38.77-16.6t-14.13-45.55v-7.83q0-18.48,6.52-32.57a48.79,48.79,0,0,1,18.61-21.61q12.11-7.53,28.13-7.52,22.17,0,35.73,11.88T401.05,112H374.64q-1-12.42-6.9-18t-18.09-5.59q-13.22,0-19.76,9.46t-6.74,29.36v9.68q0,20.78,6.3,30.37t19.84,9.59q12.24,0,18.27-5.59T374.47,154Z"/><path class="cls-1" d="M439.74,111.82q10.13-12.15,25.44-12.14,31,0,31.42,36v61H471.17v-60.3q0-8.19-3.52-12.1t-11.71-3.92q-11.18,0-16.2,8.63v67.69H414.3V61.47h25.44Z"/><path class="cls-1" d="M556.37,198.44q-21,0-34.11-12.86T509.1,151.34v-2.46a57.65,57.65,0,0,1,5.54-25.66,40.78,40.78,0,0,1,15.71-17.43,44.19,44.19,0,0,1,23.2-6.11q19.55,0,30.76,12.32t11.22,34.94v10.39H534.89a23.59,23.59,0,0,0,7.44,15q6.2,5.64,15.71,5.64,14.7,0,23-10.65l12.5,14A38.21,38.21,0,0,1,578,193.9,50.87,50.87,0,0,1,556.37,198.44Zm-2.91-78.26a15.89,15.89,0,0,0-12.28,5.13q-4.71,5.13-6,14.68h35.39v-2q-.18-8.49-4.58-13.13T553.46,120.18Z"/><path class="cls-1" d="M632.17,101.44l.79,10.65q10.13-12.42,27.37-12.41,18.4,0,25.26,14.52,10-14.52,28.61-14.52,15.49,0,23.06,9t7.57,27.15v60.83H719.31V135.94q0-8.1-3.17-11.84T705,120.36q-11.44,0-15.84,10.92l.08,65.4H663.76V136q0-8.28-3.25-12t-11.09-3.7q-10.83,0-15.67,9v67.34H608.31V101.44Z"/><path class="cls-1" d="M843.05,89.91H803.79V196.68H777.38V89.91H738.66V68.52H843.05Z"/><path class="cls-1" d="M911.73,170.27h-46.3l-8.81,26.41H828.54L876.25,68.52h24.47l48,128.16H920.62Zm-39.17-21.39h32l-16.11-48Z"/><path class="cls-1" d="M1022.56,163.05c0-5-1.76-8.81-5.28-11.49s-9.86-5.48-19-8.45a134.42,134.42,0,0,1-21.74-8.75q-21.84-11.81-21.83-31.78a31,31,0,0,1,5.85-18.53q5.85-8.13,16.81-12.72a63.33,63.33,0,0,1,24.6-4.57,57.66,57.66,0,0,1,24.47,5,38.94,38.94,0,0,1,16.68,14,36.74,36.74,0,0,1,5.94,20.6h-26.4q0-8.81-5.55-13.69t-15.58-4.89q-9.67,0-15,4.1a12.91,12.91,0,0,0-5.37,10.78q0,6.26,6.3,10.47t18.52,7.93q22.55,6.77,32.84,16.81t10.29,25q0,16.63-12.58,26.09t-33.89,9.47A65.45,65.45,0,0,1,975.64,193q-12.14-5.42-18.52-14.83a37.94,37.94,0,0,1-6.39-21.83h26.5q0,21.21,25.35,21.22,9.42,0,14.7-3.83A12.47,12.47,0,0,0,1022.56,163.05Z"/><path class="cls-1" d="M122,81.48A40.5,40.5,0,1,0,162.45,122,40.55,40.55,0,0,0,122,81.48Zm0,72A31.5,31.5,0,1,1,153.45,122,31.53,31.53,0,0,1,122,153.47Z"/><path class="cls-1" d="M207,116.36a13.4,13.4,0,0,0-9.2-8,77.06,77.06,0,0,0-151.7,0,16,16,0,0,0-1.73.58,13.44,13.44,0,0,0,1.54,25.43,77,77,0,0,0,152.07,0,12.57,12.57,0,0,0,1.64-.54A13.46,13.46,0,0,0,207,116.36Zm-155.88,9.2a4.45,4.45,0,1,1,2.45-5.8A4.46,4.46,0,0,1,51.13,125.56ZM122,190a68.15,68.15,0,0,1-67-56.31,13.46,13.46,0,0,0,.18-24.5,68.06,68.06,0,0,1,133.71.06,13.44,13.44,0,0,0,.18,24.41A68.17,68.17,0,0,1,122,190Zm77-68.42a4.45,4.45,0,1,1-8.55-1.9,4.39,4.39,0,0,1,2.42-2.4,4.46,4.46,0,0,1,6.13,3.87A3.09,3.09,0,0,1,199,121.61Z"/><path class="cls-1" d="M243,116.36a13.36,13.36,0,0,0-8.82-7.86A113.79,113.79,0,0,0,134.34,9.62a12.25,12.25,0,0,0-.44-1.24A13.47,13.47,0,0,0,121.43,0a13.48,13.48,0,0,0-12.91,9.72,111.83,111.83,0,0,0-54.62,22L47.83,21.44A6.17,6.17,0,0,0,36.55,23L27.47,56.85a6.17,6.17,0,0,0,6,7.77,6.06,6.06,0,0,0,1.58-.2l33.88-9.08a6.17,6.17,0,0,0,1.54-11.28l-10.09-6a103,103,0,0,1,48.7-19.38h0a13.43,13.43,0,0,0,24.78-.1h0A104.21,104.21,0,0,1,225.2,109.1a13.45,13.45,0,0,0,.12,24.73,104.22,104.22,0,0,1-91.48,91.51,13.44,13.44,0,0,0-24.75-.12A104.21,104.21,0,0,1,18.6,133.87a13.46,13.46,0,1,0-9,.45h0a113.8,113.8,0,0,0,98.9,99.88h0a13,13,0,0,0,.48,1.41,13.45,13.45,0,0,0,25.36-1.29,113.76,113.76,0,0,0,100-100h0a10.67,10.67,0,0,0,1.31-.45A13.46,13.46,0,0,0,243,116.36ZM37.43,54.46,43.5,31.81l3.36,5.68,2,3.37A6.07,6.07,0,0,0,51,43l1.88,1.11,7.17,4.24Zm88.11-39.27a4.38,4.38,0,0,1-2.42,2.39,4.46,4.46,0,1,1,2.42-2.39ZM9.33,123.12A4.41,4.41,0,0,1,9,122a4.32,4.32,0,0,1,.31-2.26,4.45,4.45,0,0,1,2.43-2.4,4.44,4.44,0,0,1,5.8,2.45,4.26,4.26,0,0,1,.29,2.21,4.45,4.45,0,0,1-8.54,1.15ZM125.54,232.27a4.39,4.39,0,0,1-2.42,2.4,4.48,4.48,0,1,1,2.42-2.4Zm109.11-109.1a4.45,4.45,0,0,1-2.42,2.39,4.5,4.5,0,0,1-1.68.34,4.46,4.46,0,0,1-1.68-8.59,4.4,4.4,0,0,1,1.67-.33,4.45,4.45,0,0,1,4.13,2.78,3.84,3.84,0,0,1,.32,1.44v0a1.82,1.82,0,0,1,0,.33A4.61,4.61,0,0,1,234.65,123.17Z"/></g></g></svg>