<svg xmlns="http://www.w3.org/2000/svg" viewBox="0 0 216.93 216.92"><defs><style>.cls-1{fill:#87898c;}</style></defs><title>Asset 3</title><g id="Layer_2" data-name="Layer 2"><g id="Layer_1-2" data-name="Layer 1"><path class="cls-1" d="M184.05,103.45a11.91,11.91,0,0,0-8.18-7.08A68.51,68.51,0,0,0,41,96.38a13,13,0,0,0-1.53.5,12,12,0,0,0,1.36,22.61,68.51,68.51,0,0,0,135.21,0,13,13,0,0,0,1.45-.48A12,12,0,0,0,184.05,103.45ZM45.46,111.63a4,4,0,0,1-1.49.29,4,4,0,0,1-1.49-7.63A4,4,0,0,1,44,104a4,4,0,0,1,1.49,7.63Zm63,57.31a60.58,60.58,0,0,1-59.59-50.06A12,12,0,0,0,49,97.11a60.5,60.5,0,0,1,118.87,0,12,12,0,0,0,.16,21.71A60.59,60.59,0,0,1,108.43,168.94Zm68.19-59.44a4,4,0,0,1-2.16,2.13,4,4,0,0,1-1.49.29,4,4,0,0,1-1.5-7.63A4.12,4.12,0,0,1,173,104a4,4,0,0,1,3.67,2.47,3.66,3.66,0,0,1,.28,1.13h0a3.42,3.42,0,0,1,0,.55A4,4,0,0,1,176.62,109.5Z"/><path class="cls-1" d="M108.43,72.44a36,36,0,1,0,36,36A36,36,0,0,0,108.43,72.44Zm0,64a28,28,0,1,1,28-28A28,28,0,0,1,108.43,136.44Z"/><path class="cls-1" d="M216.05,103.45a11.92,11.92,0,0,0-7.84-7A101.17,101.17,0,0,0,119.43,8.55a8.94,8.94,0,0,0-.38-1.1,12,12,0,0,0-22.58,1.2A99.32,99.32,0,0,0,47.92,28.19l-5.39-9.13a5.49,5.49,0,0,0-10,1.37L24.43,50.54a5.49,5.49,0,0,0,5.31,6.91,5.21,5.21,0,0,0,1.41-.19L61.27,49.2a5.49,5.49,0,0,0,1.37-10l-9-5.3A91.54,91.54,0,0,1,97,16.64a12,12,0,0,0,22-.09A92.67,92.67,0,0,1,200.22,97a12,12,0,0,0,.11,22A92.67,92.67,0,0,1,119,200.33a12,12,0,0,0-22-.09A92.68,92.68,0,0,1,16.54,119a12,12,0,1,0-8,.41,101.19,101.19,0,0,0,87.92,88.81,11.38,11.38,0,0,0,.43,1.24,12,12,0,0,0,22.56-1.14,101.16,101.16,0,0,0,88.87-88.89,9.94,9.94,0,0,0,1.16-.4A12,12,0,0,0,216.05,103.45Zm-182.77-55,5.4-20.13,3,5,1.77,3a5.52,5.52,0,0,0,1.94,1.93l1.66,1L53.42,43ZM111.62,13.5a4,4,0,0,1-2.16,2.13,4,4,0,0,1-1.49.29,4,4,0,0,1-1.5-7.63A4.12,4.12,0,0,1,108,8a4,4,0,0,1,3.65,5.5ZM15.9,108.44a4,4,0,0,1-2.44,3.19,4,4,0,0,1-1.49.29,4,4,0,0,1-3.67-2.47,3.67,3.67,0,0,1-.26-1,4,4,0,0,1,2.44-4.15A4,4,0,0,1,12,104a4,4,0,0,1,3.93,4.44Zm95.72,98.06a4,4,0,0,1-2.16,2.13,4,4,0,0,1-1.49.29,4,4,0,0,1-1.5-7.63A4.12,4.12,0,0,1,108,201a4,4,0,0,1,3.65,5.5Zm97-97a4,4,0,0,1-2.16,2.13,4,4,0,0,1-1.49.29,4,4,0,0,1-1.5-7.63A4.12,4.12,0,0,1,205,104a4,4,0,0,1,3.67,2.47,3.66,3.66,0,0,1,.28,1.13,3.53,3.53,0,0,1,0,.56A4,4,0,0,1,208.62,109.5Z"/></g></g></svg>