<svg xmlns="http://www.w3.org/2000/svg" viewBox="0 0 1067.4 244"><defs><style>.cls-1{fill:#4a4b4d;}</style></defs><g id="Layer_2" data-name="Layer 2"><g id="Layer_1-2" data-name="Layer 1"><path class="cls-1" d="M122,81.48A40.5,40.5,0,1,0,162.45,122,40.55,40.55,0,0,0,122,81.48Zm0,72A31.5,31.5,0,1,1,153.45,122,31.53,31.53,0,0,1,122,153.47Z"/><path class="cls-1" d="M243,116.36a13.4,13.4,0,0,0-8.82-7.87A113.79,113.79,0,0,0,134.34,9.62a12.25,12.25,0,0,0-.44-1.24,13.45,13.45,0,0,0-25.38,1.34,112,112,0,0,0-54.63,22L47.83,21.44A6.17,6.17,0,0,0,36.55,23L27.47,56.86a6.16,6.16,0,0,0,6,7.76,6.06,6.06,0,0,0,1.58-.2l33.88-9.08a6.17,6.17,0,0,0,1.54-11.28l-10.09-6a103,103,0,0,1,48.7-19.38h0a13.44,13.44,0,0,0,24.79-.1A104.2,104.2,0,0,1,225.2,109.1a13.45,13.45,0,0,0,.12,24.73,104.22,104.22,0,0,1-91.48,91.51,13.44,13.44,0,0,0-24.75-.12A104.21,104.21,0,0,1,18.6,133.87a13.46,13.46,0,1,0-9,.45,113.79,113.79,0,0,0,98.91,99.89,13,13,0,0,0,.48,1.41,13.46,13.46,0,0,0,25.37-1.29,113.76,113.76,0,0,0,100-100,12.74,12.74,0,0,0,1.31-.46A13.46,13.46,0,0,0,243,116.36ZM37.43,54.46,43.5,31.81l3.35,5.67,2,3.38A6.18,6.18,0,0,0,51,43l1.87,1.11,7.18,4.24Zm88.12-39.27a4.46,4.46,0,1,1,0-3.41A4.5,4.5,0,0,1,125.55,15.19ZM17.87,122a4.45,4.45,0,0,1-8.54,1.15A4.32,4.32,0,0,1,9,122a4.46,4.46,0,0,1,2.74-4.66,4.44,4.44,0,0,1,5.8,2.45A4.26,4.26,0,0,1,17.87,122Zm107.68,110.3a4.45,4.45,0,1,1,0-3.41A4.5,4.5,0,0,1,125.55,232.27Zm109.1-109.1a4.45,4.45,0,0,1-2.42,2.39,4.5,4.5,0,0,1-1.68.34,4.46,4.46,0,0,1-1.68-8.59,4.44,4.44,0,0,1,5.8,2.45,4.12,4.12,0,0,1,.32,1.53,2.35,2.35,0,0,1,0,.26A4.61,4.61,0,0,1,234.65,123.17Z"/><path class="cls-1" d="M207,116.36a13.4,13.4,0,0,0-9.2-8,77.06,77.06,0,0,0-151.7,0,16,16,0,0,0-1.73.58,13.44,13.44,0,0,0,1.54,25.42,77,77,0,0,0,152.07,0,12.57,12.57,0,0,0,1.64-.54A13.46,13.46,0,0,0,207,116.36ZM53.56,123.17a4.45,4.45,0,0,1-8.21-3.46,4.39,4.39,0,0,1,2.42-2.4,4.45,4.45,0,0,1,5.81,2.45A4.5,4.5,0,0,1,53.56,123.17ZM122,190a68.15,68.15,0,0,1-67-56.31,13.46,13.46,0,0,0,.18-24.5,68.06,68.06,0,0,1,133.71.06,13.44,13.44,0,0,0,.18,24.41A68.16,68.16,0,0,1,122,190Zm74.27-64.47a4.46,4.46,0,1,1,2.77-4.35,2.41,2.41,0,0,1,0,.38,4.39,4.39,0,0,1-.34,1.58A4.44,4.44,0,0,1,196.23,125.56Z"/><path class="cls-1" d="M333.74,191.2q-17.87,0-31.48-7.36a52.09,52.09,0,0,1-21.19-21Q273.5,149.17,273.5,130v-5q0-17.86,7.1-31.69A52.77,52.77,0,0,1,301,71.61q13.27-7.87,31.48-7.87a81.67,81.67,0,0,1,24.13,3.49,59.09,59.09,0,0,1,20.8,11.4v30.89H357.23L354.5,91a40.56,40.56,0,0,0-6.12-3.41,33.89,33.89,0,0,0-7-2.21,40.41,40.41,0,0,0-8.09-.77A30.58,30.58,0,0,0,316,89.43a31.16,31.16,0,0,0-11.27,13.83q-4,9-4,21.57V130a51.46,51.46,0,0,0,4.09,21.28,32.42,32.42,0,0,0,11.61,14.12,31,31,0,0,0,17.66,5,48.78,48.78,0,0,0,10.46-1.15,59,59,0,0,0,9.87-3l2.81-17.44h20.08v30.38a71.7,71.7,0,0,1-18.46,8.46A83.14,83.14,0,0,1,333.74,191.2Z"/><path class="cls-1" d="M386.43,189.42V173.25l11.32-2.64v-95l-13.1-2.64V56.67H425v52.25a30.43,30.43,0,0,1,10.51-9.78,29.07,29.07,0,0,1,14.42-3.49q13.62,0,21.7,9.36t8.08,28.93v36.67L491,173.25v16.17H442.59V173.25l9.7-2.64V133.77q0-9.45-3.36-13.23t-9.83-3.79a18.49,18.49,0,0,0-8.12,1.74,15.23,15.23,0,0,0-6,5.24v46.88l9.78,2.64v16.17Z"/><path class="cls-1" d="M540.29,191.2q-13.45,0-23.4-5.83a40.41,40.41,0,0,1-15.45-16,47.84,47.84,0,0,1-5.48-23.1V143a57.34,57.34,0,0,1,5-24.59,39.19,39.19,0,0,1,14.46-16.8q9.45-6.09,22.63-6,12.51,0,21.11,4.85a31.36,31.36,0,0,1,13.06,14.16q4.47,9.33,4.47,22.68v14.47H524.29l-.08.59a23,23,0,0,0,3,9.23,17.06,17.06,0,0,0,6.68,6.39,21.74,21.74,0,0,0,10.51,2.34,46.15,46.15,0,0,0,12-1.54,55.8,55.8,0,0,0,11.7-4.68l6.72,16.68a53,53,0,0,1-14.72,7.4A61.28,61.28,0,0,1,540.29,191.2Zm-15.83-56.84h27.06v-2.21a27.42,27.42,0,0,0-1.28-8.89,11,11,0,0,0-4.08-5.66,12.9,12.9,0,0,0-7.49-2,12.21,12.21,0,0,0-7.79,2.39,14.69,14.69,0,0,0-4.59,6.51,38.53,38.53,0,0,0-2.17,9.4Z"/><path class="cls-1" d="M585,189.42V173.25l11.49-2.64V116.24l-13.19-2.64V97.35h38.63l1,12.17A32.7,32.7,0,0,1,634,99.31a30.73,30.73,0,0,1,15.23-3.66,28.35,28.35,0,0,1,14.94,3.78,23.14,23.14,0,0,1,9.4,11.62,31.41,31.41,0,0,1,10.93-11.36,29.8,29.8,0,0,1,15.7-4q13.53,0,21.27,9.14t7.75,28v37.86l11.49,2.64v16.17H692.22V173.25l9.7-2.64V132.75q0-9.1-2.89-12.55c-1.93-2.3-4.76-3.45-8.51-3.45a14.8,14.8,0,0,0-8.42,2.38,16.48,16.48,0,0,0-5.62,6.47v45l8.85,2.64v16.17H640.4V173.25l8.85-2.64V132.75q0-9-2.93-12.51t-8.64-3.49a16.46,16.46,0,0,0-14,7.06v46.8l9.79,2.64v16.17Z"/><path class="cls-1" d="M766.05,189.42V173.25l13.1-2.64v-84H758.31l-1.11,14.12H736.61V65.52H849.35v35.23H828.59l-1.11-14.12H806.55v84l13.1,2.64v16.17Z"/><path class="cls-1" d="M840.06,189.42V173.25l8.76-1.28L887,65.52h28.85L954,172l8.76,1.28v16.17H918.51V173.25l8.34-1.53-4.59-15.23h-41.7l-4.51,15.23,8.26,1.53v16.17Zm46.54-52.59h29.45l-13.19-40-1.36-4H901l-1.36,4.42Z"/><path class="cls-1" d="M1020.77,191.2a103,103,0,0,1-25.87-3,71.59,71.59,0,0,1-22.72-10.72V146.36h21.1l2.64,17.1q3.23,3.15,10,5.19a51,51,0,0,0,14.81,2,29.44,29.44,0,0,0,10.5-1.62,13.38,13.38,0,0,0,6.39-4.72,12.58,12.58,0,0,0,2.17-7.36,13.24,13.24,0,0,0-2-7.24,19.44,19.44,0,0,0-6.56-5.87,69.18,69.18,0,0,0-12.29-5.44,147.81,147.81,0,0,1-25.27-9.92q-10-5.23-14.85-12.42T974,98.54a29.11,29.11,0,0,1,5.74-17.91A38.55,38.55,0,0,1,995.54,68.5a58.86,58.86,0,0,1,23.1-4.59,82.07,82.07,0,0,1,26.12,3.15,62.06,62.06,0,0,1,19.83,10V106h-20.42l-3.32-16.85a35.78,35.78,0,0,0-8.51-3.06,48.92,48.92,0,0,0-11.91-1.37,28.76,28.76,0,0,0-9.92,1.58,15.05,15.05,0,0,0-6.76,4.64,11.64,11.64,0,0,0-2.47,7.57,10.92,10.92,0,0,0,2.08,6.55q2.08,2.89,7.28,5.58a119.63,119.63,0,0,0,14.38,5.91q20.76,6,31.57,15.32t10.81,24.93a29.58,29.58,0,0,1-5.88,18.5,36.68,36.68,0,0,1-16.33,11.79Q1034.72,191.2,1020.77,191.2Z"/></g></g></svg>