<svg xmlns="http://www.w3.org/2000/svg" width="106.955" height="106.955" viewBox="0 0 106.955 106.955">
  <g id="Group_68" data-name="Group 68" transform="translate(-1305 -1348.045)">
    <g id="Group_66" data-name="Group 66" transform="translate(-9878 -6557)">
      <g id="Ellipse_21" data-name="Ellipse 21" transform="translate(11213 7937)" fill="#fff" stroke="#4a4b4d" stroke-width="5">
        <circle cx="22.5" cy="22.5" r="22.5" stroke="none"/>
        <circle cx="22.5" cy="22.5" r="20" fill="none"/>
      </g>
      <line id="Line_17" data-name="Line 17" y2="20.172" transform="translate(11235.587 7949.628)" fill="none" stroke="#4a4b4d" stroke-width="5"/>
      <line id="Line_18" data-name="Line 18" y2="20.172" transform="translate(11245.801 7959.587) rotate(90)" fill="none" stroke="#4a4b4d" stroke-width="5"/>
    </g>
    <g id="Ellipse_27" data-name="Ellipse 27" transform="translate(1305 1350)" fill="none" stroke="#4a4b4d" stroke-width="5">
      <circle cx="52.5" cy="52.5" r="52.5" stroke="none"/>
      <circle cx="52.5" cy="52.5" r="50" fill="none"/>
    </g>
    <g id="Ellipse_28" data-name="Ellipse 28" transform="translate(1320 1365)" fill="none" stroke="#4a4b4d" stroke-width="5">
      <circle cx="37.5" cy="37.5" r="37.5" stroke="none"/>
      <circle cx="37.5" cy="37.5" r="35" fill="none"/>
    </g>
    <g id="Group_51" data-name="Group 51" transform="translate(-345.955 1288)">
      <g id="Ellipse_23" data-name="Ellipse 23" transform="translate(1664 122)" fill="#4a4b4d" stroke="#979a0a" stroke-width="4">
        <circle cx="15.977" cy="15.977" r="15.977" stroke="none"/>
        <circle cx="15.977" cy="15.977" r="13.977" fill="none"/>
      </g>
      <line id="Line_15" data-name="Line 15" x2="14" transform="translate(1672.5 138.5)" fill="none" stroke="#f5f8fc" stroke-width="4"/>
    </g>
    <g id="Group_67" data-name="Group 67" transform="translate(-284 1226.045)">
      <g id="Path_48" data-name="Path 48" transform="translate(1664 122)" fill="#4a4b4d">
        <path d="M 15.97742366790771 29.95484352111816 C 12.2439136505127 29.95484352111816 8.73387336730957 28.50094413757324 6.093893527984619 25.86095428466797 C 3.453903675079346 23.22097396850586 2.000003576278687 19.71093368530273 2.000003576278687 15.97742366790771 C 2.000003576278687 12.2439136505127 3.453903675079346 8.73387336730957 6.093893527984619 6.093893527984619 C 8.73387336730957 3.453903675079346 12.2439136505127 2.000003576278687 15.97742366790771 2.000003576278687 C 19.71093368530273 2.000003576278687 23.22097396850586 3.453903675079346 25.86095428466797 6.093893527984619 C 28.50094413757324 8.73387336730957 29.95484352111816 12.2439136505127 29.95484352111816 15.97742366790771 C 29.95484352111816 19.71093368530273 28.50094413757324 23.22097396850586 25.86095428466797 25.86095428466797 C 23.22097396850586 28.50094413757324 19.71093368530273 29.95484352111816 15.97742366790771 29.95484352111816 Z" stroke="none"/>
        <path d="M 15.97742366790771 4.000003814697266 C 12.77813339233398 4.000003814697266 9.770343780517578 5.245874404907227 7.50810432434082 7.50810432434082 C 5.245874404907227 9.770343780517578 4.000003814697266 12.77813339233398 4.000003814697266 15.97742366790771 C 4.000003814697266 19.17671394348145 5.245874404907227 22.18450355529785 7.50810432434082 24.44674301147461 C 9.770343780517578 26.7089729309082 12.77813339233398 27.95484352111816 15.97742366790771 27.95484352111816 C 19.17671394348145 27.95484352111816 22.18450355529785 26.7089729309082 24.44674301147461 24.44674301147461 C 26.7089729309082 22.18450355529785 27.95484352111816 19.17671394348145 27.95484352111816 15.97742366790771 C 27.95484352111816 12.77813339233398 26.7089729309082 9.770343780517578 24.44674301147461 7.50810432434082 C 22.18450355529785 5.245874404907227 19.17671394348145 4.000003814697266 15.97742366790771 4.000003814697266 M 15.97742366790771 3.814697265625e-06 C 24.801513671875 3.814697265625e-06 31.95484352111816 7.15333366394043 31.95484352111816 15.97742366790771 C 31.95484352111816 24.801513671875 24.801513671875 31.95484352111816 15.97742366790771 31.95484352111816 C 7.15333366394043 31.95484352111816 3.814697265625e-06 24.801513671875 3.814697265625e-06 15.97742366790771 C 3.814697265625e-06 7.15333366394043 7.15333366394043 3.814697265625e-06 15.97742366790771 3.814697265625e-06 Z" stroke="none" fill="#979a0a"/>
      </g>
      <line id="Line_15-2" data-name="Line 15" x2="14" transform="translate(1672.5 138.5)" fill="none" stroke="#fff" stroke-width="4"/>
    </g>
  </g>
</svg>
