<svg xmlns="http://www.w3.org/2000/svg" viewBox="0 0 384 384"><defs><style>.cls-1{fill:#fff;}.cls-2,.cls-4{fill:none;stroke-miterlimit:10;}.cls-2{stroke:#4a4b4d;stroke-width:30px;}.cls-3{fill:#4a4b4d;}.cls-4{stroke:#fff;stroke-width:17px;}</style></defs><title>Asset 2</title><g id="Layer_2" data-name="Layer 2"><g id="Layer_1-2" data-name="Layer 1"><circle class="cls-1" cx="192" cy="192" r="192"/><line class="cls-2" x1="193" y1="48.5" x2="193" y2="335.5"/><line class="cls-2" x1="335.5" y1="193.5" x2="48.5" y2="193.5"/><circle class="cls-3" cx="268" cy="268" r="68.5"/><path class="cls-1" d="M268,208a60,60,0,1,1-60,60,60,60,0,0,1,60-60m0-17a77,77,0,1,0,77,77,77.08,77.08,0,0,0-77-77Z"/><line class="cls-4" x1="235" y1="268" x2="301" y2="268"/><circle class="cls-3" cx="116" cy="116" r="68.5"/><path class="cls-1" d="M116,56a60,60,0,1,1-60,60,60,60,0,0,1,60-60m0-17a77,77,0,1,0,77,77,77.08,77.08,0,0,0-77-77Z"/><line class="cls-4" x1="83" y1="116" x2="149" y2="116"/></g></g></svg>