<?xml version="1.0" encoding="utf-8"?>
<!-- Generator: Adobe Illustrator 23.0.6, SVG Export Plug-In . SVG Version: 6.00 Build 0)  -->
<svg version="1.1" id="Layer_1" xmlns="http://www.w3.org/2000/svg" xmlns:xlink="http://www.w3.org/1999/xlink" x="0px" y="0px"
	 viewBox="0 0 1024 600" style="enable-background:new 0 0 1024 600;" xml:space="preserve">
<style type="text/css">
	.st0{fill:#303233;}
</style>
<path class="st0" d="M256.9,44.3c141.3,0,256,114.7,256,256s-114.7,256-256,256s-256-114.7-256-256S115.6,44.3,256.9,44.3z"/>
<path class="st0" d="M780.1,44l-61.7,65.8l-88.7-17l-11.3,89.6l-81.7,38.4l43.5,79.1l-43.5,79.1l81.7,38.4l11.3,89.6l88.7-17
	l61.7,65.8h0.1l61.7-65.8l88.7,17l11.3-89.6l81.7-38.4L980.2,300l43.5-79.1L942,182.4l-11.3-89.6l-88.7,17L780.3,44H780.1z"/>
</svg>
