<svg xmlns="http://www.w3.org/2000/svg" viewBox="0 0 506.79 501.11"><defs><style>.cls-1{fill:#6bbe50;}.cls-2{fill:#5fc7cb;}.cls-3{fill:#d4ca4d;}.cls-4{fill:#3a3b3d;}</style></defs><title>Asset 1</title><g id="Layer_2" data-name="Layer 2"><g id="icon"><rect class="cls-1" x="162.39" y="50.24" width="10.67" height="234.47" transform="translate(-69.3 167.65) rotate(-45)"/><rect class="cls-2" x="231.63" y="181.29" width="234.55" height="10.67" transform="translate(-45.29 220.95) rotate(-33.12)"/><rect class="cls-1" x="48.22" y="330.55" width="234.47" height="10.67" transform="translate(-189.05 215.38) rotate(-45)"/><rect class="cls-3" x="16.13" y="239.89" width="468.98" height="21.33"/><path class="cls-4" d="M250.55,501.11A250.55,250.55,0,0,1,73.39,73.39,250.55,250.55,0,1,1,427.72,427.72,248.88,248.88,0,0,1,250.55,501.11Zm0-469.11C130,32,32,130,32,250.55s98,218.56,218.55,218.56,218.56-98,218.56-218.56S371.07,32,250.55,32Z"/><rect class="cls-4" x="234.79" y="175.89" width="32" height="149.33"/><rect class="cls-4" x="400.13" y="207.89" width="106.67" height="85.33" rx="9.02"/></g></g></svg>