<svg xmlns="http://www.w3.org/2000/svg" viewBox="0 0 1024 600" width="1024" height="600" preserveAspectRatio="xMidYMid meet" style="width: 100%; height: 100%; transform: translate3d(0px, 0px, 0px);"><defs><clipPath id="__lottie_element_328"><rect width="1024" height="600" x="0" y="0"></rect></clipPath><radialGradient id="__lottie_element_359" spreadMethod="pad" gradientUnits="userSpaceOnUse" cx="9" cy="53" r="267.30693967796645" fx="9" fy="53"><stop offset="0%" stop-color="rgb(69,70,72)" stop-opacity="1"></stop><stop offset="50%" stop-color="rgb(69,70,72)" stop-opacity="0.5"></stop><stop offset="100%" stop-color="rgb(69,70,72)" stop-opacity="0"></stop></radialGradient></defs><g clip-path="url(#__lottie_element_328)"><g transform="matrix(0.9999992847442627,0,0,0.9999992847442627,502.5,246.50003051757812)" opacity="0.999998778076495" style="display: block;"><path fill="url(#__lottie_element_359)" fill-opacity="1" d=" M247.1,154.35 C302.8,23.13 241.57,-128.4 110.35,-184.1 C-20.87,-239.8 -172.4,-178.57 -228.1,-47.35 C-283.8,83.87 -222.57,235.4 -91.35,291.1 C39.87,346.8 191.4,285.57 247.1,154.35z"></path><g opacity="1" transform="matrix(-0.5587455034255981,1.316321849822998,-1.316321849822998,-0.5587455034255981,9.5,53.5)"></g></g><g transform="matrix(1,0,0,1,892,421.25)" opacity="1" style="display: block;"><g opacity="0.9999999999999959" transform="matrix(0.3700000047683716,0,0,0.3700000047683716,-380,-121)"><path fill="rgb(255,255,255)" fill-opacity="1" d=" M0,-256 C141.28640747070312,-256 256,-141.28640747070312 256,0 C256,141.28640747070312 141.28640747070312,256 0,256 C-141.28640747070312,256 -256,141.28640747070312 -256,0 C-256,-141.28640747070312 -141.28640747070312,-256 0,-256z"></path><path stroke-linecap="butt" stroke-linejoin="miter" fill-opacity="0" stroke-miterlimit="4" stroke="rgb(74,75,77)" stroke-opacity="1" stroke-width="53.334" d=" M0,-256 C141.28640747070312,-256 256,-141.28640747070312 256,0 C256,141.28640747070312 141.28640747070312,256 0,256 C-141.28640747070312,256 -256,141.28640747070312 -256,0 C-256,-141.28640747070312 -141.28640747070312,-256 0,-256z"></path></g></g><g transform="matrix(1,0,0,1,536.4169921875,43.75)" opacity="1" style="display: none;"><g opacity="1.221924901528837e-7" transform="matrix(0.30000007152557373,0,0,0.30000007152557373,243.78500366210938,256.25)"><path fill="rgb(255,255,255)" fill-opacity="1" d=" M-0.06400000303983688,-256 C-0.06400000303983688,-256 -61.80500030517578,-190.21099853515625 -61.80500030517578,-190.21099853515625 C-61.80500030517578,-190.21099853515625 -150.51400756835938,-207.16299438476562 -150.51400756835938,-207.16299438476562 C-150.51400756835938,-207.16299438476562 -161.80499267578125,-117.55699920654297 -161.80499267578125,-117.55699920654297 C-161.80499267578125,-117.55699920654297 -243.53599548339844,-79.12899780273438 -243.53599548339844,-79.12899780273438 C-243.53599548339844,-79.12899780273438 -200.00100708007812,0 -200.00100708007812,0 C-200.00100708007812,0 -243.53599548339844,79.12899780273438 -243.53599548339844,79.12899780273438 C-243.53599548339844,79.12899780273438 -161.80499267578125,117.55799865722656 -161.80499267578125,117.55799865722656 C-161.80499267578125,117.55799865722656 -150.51400756835938,207.16299438476562 -150.51400756835938,207.16299438476562 C-150.51400756835938,207.16299438476562 -61.80500030517578,190.21200561523438 -61.80500030517578,190.21200561523438 C-61.80500030517578,190.21200561523438 -0.06400000303983688,256 -0.06400000303983688,256 C-0.06400000303983688,256 0.06400000303983688,256 0.06400000303983688,256 C0.06400000303983688,256 61.803001403808594,190.21200561523438 61.803001403808594,190.21200561523438 C61.803001403808594,190.21200561523438 150.51400756835938,207.16299438476562 150.51400756835938,207.16299438476562 C150.51400756835938,207.16299438476562 161.80299377441406,117.55799865722656 161.80299377441406,117.55799865722656 C161.80299377441406,117.55799865722656 243.53500366210938,79.12899780273438 243.53500366210938,79.12899780273438 C243.53500366210938,79.12899780273438 199.99899291992188,0 199.99899291992188,0 C199.99899291992188,0 243.53500366210938,-79.12899780273438 243.53500366210938,-79.12899780273438 C243.53500366210938,-79.12899780273438 161.80299377441406,-117.55699920654297 161.80299377441406,-117.55699920654297 C161.80299377441406,-117.55699920654297 150.51400756835938,-207.16299438476562 150.51400756835938,-207.16299438476562 C150.51400756835938,-207.16299438476562 61.803001403808594,-190.21099853515625 61.803001403808594,-190.21099853515625 C61.803001403808594,-190.21099853515625 0.06400000303983688,-256 0.06400000303983688,-256 C0.06400000303983688,-256 -0.06400000303983688,-256 -0.06400000303983688,-256z"></path></g></g><g transform="matrix(0.28000038862228394,0,0,0.28000038862228394,512,300)" opacity="1" style="display: block;"><g opacity="1" transform="matrix(0,1,-1,0,-15,9)"><path stroke-linecap="butt" stroke-linejoin="miter" fill-opacity="0" stroke-miterlimit="4" stroke="rgb(74,75,77)" stroke-opacity="1" stroke-width="78.668" d=" M-9,-208 C-9,-208 -9,177 -9,177"></path></g><g opacity="1" transform="matrix(1,0,0,1,9,15)"><path stroke-linecap="butt" stroke-linejoin="miter" fill-opacity="0" stroke-miterlimit="4" stroke="rgb(74,75,77)" stroke-opacity="1" stroke-width="78.668" d=" M-9,-208 C-9,-208 -9,177 -9,177"></path></g></g><g transform="matrix(0.949999988079071,0,0,0.949999988079071,503.07000732421875,249.7100067138672)" opacity="0.000001181192803585418" style="display: block;"><g opacity="1" transform="matrix(0.5587440133094788,-1.3163225650787354,1.3163225650787354,0.5587440133094788,9.5,53.5)"><path stroke-linecap="round" stroke-linejoin="miter" fill-opacity="0" stroke-miterlimit="4" stroke="rgb(69,70,72)" stroke-opacity="1" stroke-width="16.334" d=" M0,-180.5 C-99.68699645996094,-180.5 -180.5,-99.68699645996094 -180.5,0 C-180.5,49.84299850463867 -160.2969970703125,94.96800231933594 -127.63300323486328,127.63300323486328"></path></g><g opacity="1" transform="matrix(0.5587440133094788,-1.3163225650787354,1.3163225650787354,0.5587440133094788,9.5,53.5)"><path stroke-linecap="round" stroke-linejoin="miter" fill-opacity="0" stroke-miterlimit="4" stroke="rgb(69,70,72)" stroke-opacity="1" stroke-width="16.334" d=" M0,180.5 C0,180.5 0,180.5 0,180.5 C99.68699645996094,180.5 180.5,99.68699645996094 180.5,0 C180.5,-51.882999420166016 158.60899353027344,-98.65399932861328 123.55999755859375,-131.5800018310547"></path></g><g opacity="1" transform="matrix(0.9743702411651611,-0.22495031356811523,0.22495031356811523,0.9743702411651611,9.5,53.5)"><path stroke-linecap="round" stroke-linejoin="miter" fill-opacity="0" stroke-miterlimit="4" stroke="rgb(69,70,72)" stroke-opacity="1" stroke-width="21.334" d="M0 0"></path></g></g><g transform="matrix(1,0,0,1,266.66497802734375,54.65191650390625)" opacity="0.9999992261147377" style="display: none;"><g opacity="1" transform="matrix(1,0,0,1,143.6649932861328,143.6649932861328)"><path fill="rgb(74,75,77)" fill-opacity="1" d=" M90.33000183105469,0 C90.33000183105469,49.88800048828125 49.88800048828125,90.33000183105469 0,90.33000183105469 C-49.88800048828125,90.33000183105469 -90.33000183105469,49.88800048828125 -90.33000183105469,0 C-90.33000183105469,-49.88800048828125 -49.88800048828125,-90.33000183105469 0,-90.33000183105469 C49.88800048828125,-90.33000183105469 90.33000183105469,-49.88800048828125 90.33000183105469,0z"></path><path stroke-linecap="butt" stroke-linejoin="miter" fill-opacity="0" stroke-miterlimit="10" stroke="rgb(255,255,255)" stroke-opacity="1" stroke-width="21.334" d=" M90.33000183105469,0 C90.33000183105469,49.88800048828125 49.88800048828125,90.33000183105469 0,90.33000183105469 C-49.88800048828125,90.33000183105469 -90.33000183105469,49.88800048828125 -90.33000183105469,0 C-90.33000183105469,-49.88800048828125 -49.88800048828125,-90.33000183105469 0,-90.33000183105469 C49.88800048828125,-90.33000183105469 90.33000183105469,-49.88800048828125 90.33000183105469,0z"></path></g><g opacity="1" transform="matrix(1,0,0,1,0,0)"><path stroke-linecap="butt" stroke-linejoin="miter" fill-opacity="0" stroke-miterlimit="10" stroke="rgb(255,255,255)" stroke-opacity="1" stroke-width="21.334" d=" M98.35600280761719,143.6649932861328 C98.35600280761719,143.6649932861328 188.9739990234375,143.6649932861328 188.9739990234375,143.6649932861328"></path></g></g><g transform="matrix(0.5900002121925354,0,0,0.5900002121925354,253.38751220703125,40.387969970703125)" opacity="0.000001181192803585418" style="display: block;"><g opacity="1" transform="matrix(1,0,0,1,143.6649932861328,143.6649932861328)"><path fill="rgb(69,70,72)" fill-opacity="1" d=" M90.33000183105469,0 C90.33000183105469,49.88800048828125 49.88800048828125,90.33000183105469 0,90.33000183105469 C-49.88800048828125,90.33000183105469 -90.33000183105469,49.88800048828125 -90.33000183105469,0 C-90.33000183105469,-49.88800048828125 -49.88800048828125,-90.33000183105469 0,-90.33000183105469 C49.88800048828125,-90.33000183105469 90.33000183105469,-49.88800048828125 90.33000183105469,0z"></path><path stroke-linecap="butt" stroke-linejoin="miter" fill-opacity="0" stroke-miterlimit="10" stroke="rgb(255,255,255)" stroke-opacity="5.295006199901309e-7" stroke-width="21.334" d=" M90.33000183105469,0 C90.33000183105469,49.88800048828125 49.88800048828125,90.33000183105469 0,90.33000183105469 C-49.88800048828125,90.33000183105469 -90.33000183105469,49.88800048828125 -90.33000183105469,0 C-90.33000183105469,-49.88800048828125 -49.88800048828125,-90.33000183105469 0,-90.33000183105469 C49.88800048828125,-90.33000183105469 90.33000183105469,-49.88800048828125 90.33000183105469,0z"></path></g><g opacity="1" transform="matrix(1,0.0000011089836107203155,-0.0000011089836107203155,1,0.000152587890625,-0.000152587890625)"><path stroke-linecap="butt" stroke-linejoin="miter" fill-opacity="0" stroke-miterlimit="10" stroke="rgb(255,255,255)" stroke-opacity="1" stroke-width="21.334" d=" M98.35600280761719,143.6649932861328 C98.35600280761719,143.6649932861328 188.9739990234375,143.6649932861328 188.9739990234375,143.6649932861328"></path></g></g><g transform="matrix(1,0,0,1,470.0050048828125,258.02911376953125)" opacity="0.9999992016762782" style="display: none;"><g opacity="1" transform="matrix(1,0,0,1,143.6649932861328,143.6649932861328)"><path fill="rgb(74,75,77)" fill-opacity="1" d=" M90.33000183105469,0 C90.33000183105469,49.88800048828125 49.88800048828125,90.33000183105469 0,90.33000183105469 C-49.88800048828125,90.33000183105469 -90.33000183105469,49.88800048828125 -90.33000183105469,0 C-90.33000183105469,-49.88800048828125 -49.88800048828125,-90.33000183105469 0,-90.33000183105469 C49.88800048828125,-90.33000183105469 90.33000183105469,-49.88800048828125 90.33000183105469,0z"></path><path stroke-linecap="butt" stroke-linejoin="miter" fill-opacity="0" stroke-miterlimit="10" stroke="rgb(255,255,255)" stroke-opacity="1" stroke-width="21.334" d=" M90.33000183105469,0 C90.33000183105469,49.88800048828125 49.88800048828125,90.33000183105469 0,90.33000183105469 C-49.88800048828125,90.33000183105469 -90.33000183105469,49.88800048828125 -90.33000183105469,0 C-90.33000183105469,-49.88800048828125 -49.88800048828125,-90.33000183105469 0,-90.33000183105469 C49.88800048828125,-90.33000183105469 90.33000183105469,-49.88800048828125 90.33000183105469,0z"></path></g><g opacity="1" transform="matrix(1,0,0,1,0,0)"><path stroke-linecap="butt" stroke-linejoin="miter" fill-opacity="0" stroke-miterlimit="10" stroke="rgb(255,255,255)" stroke-opacity="1" stroke-width="21.334" d=" M96.68599700927734,141.9949951171875 C96.68599700927734,141.9949951171875 187.3040008544922,141.9949951171875 187.3040008544922,141.9949951171875"></path></g></g><g transform="matrix(0.5900002121925354,0,0,0.5900002121925354,615.9078979492188,404.90777587890625)" opacity="0.000001181192803585418" style="display: block;"><g opacity="1" transform="matrix(1,0,0,1,143.6649932861328,143.6649932861328)"><path fill="rgb(69,70,72)" fill-opacity="1" d=" M90.33000183105469,0 C90.33000183105469,49.88800048828125 49.88800048828125,90.33000183105469 0,90.33000183105469 C-49.88800048828125,90.33000183105469 -90.33000183105469,49.88800048828125 -90.33000183105469,0 C-90.33000183105469,-49.88800048828125 -49.88800048828125,-90.33000183105469 0,-90.33000183105469 C49.88800048828125,-90.33000183105469 90.33000183105469,-49.88800048828125 90.33000183105469,0z"></path><path stroke-linecap="butt" stroke-linejoin="miter" fill-opacity="0" stroke-miterlimit="10" stroke="rgb(255,255,255)" stroke-opacity="5.295006199901309e-7" stroke-width="21.334" d=" M90.33000183105469,0 C90.33000183105469,49.88800048828125 49.88800048828125,90.33000183105469 0,90.33000183105469 C-49.88800048828125,90.33000183105469 -90.33000183105469,49.88800048828125 -90.33000183105469,0 C-90.33000183105469,-49.88800048828125 -49.88800048828125,-90.33000183105469 0,-90.33000183105469 C49.88800048828125,-90.33000183105469 90.33000183105469,-49.88800048828125 90.33000183105469,0z"></path></g><g opacity="1" transform="matrix(1,0.0000011089836107203155,-0.0000011089836107203155,1,0.000152587890625,-0.000152587890625)"><path stroke-linecap="butt" stroke-linejoin="miter" fill-opacity="0" stroke-miterlimit="10" stroke="rgb(255,255,255)" stroke-opacity="1" stroke-width="21.334" d=" M96.68599700927734,141.9949951171875 C96.68599700927734,141.9949951171875 187.3040008544922,141.9949951171875 187.3040008544922,141.9949951171875"></path></g></g></g></svg>