<svg xmlns="http://www.w3.org/2000/svg" width="314.564" height="254.671" viewBox="0 0 314.564 254.671"><g transform="translate(-42.833 -68.507)"><path d="M362.822,187.16v18.4a283.535,283.535,0,0,1-38.181,22.582c-24.791,12.361-54.027,13.671-65.284,13.671-2.353,0-3.924-.055-4.493-.082L106.72,241.6l.014-14.632,148.486.13.178.007c.35.014,35.431,1.543,62.712-12.059C340.4,203.932,354.728,193.752,362.822,187.16Z" transform="translate(-20.062 -37.26)" fill="#69b23b"/><path d="M48.176,155.624" transform="translate(-1.678 -27.357)" fill="none" stroke="#ac426e" stroke-miterlimit="10" stroke-width="32.001"/><path d="M342.763,320.4a14.6,14.6,0,0,1-7.26-1.95L232.543,259.64H57.468a14.651,14.651,0,0,1-14.635-14.635V157.457a14.651,14.651,0,0,1,14.635-14.635H233L335.5,84.261A14.635,14.635,0,0,1,357.4,96.969V305.748A14.687,14.687,0,0,1,342.763,320.4ZM57.468,157.457v87.548H232.543a14.653,14.653,0,0,1,7.26,1.928l102.958,58.814V96.969c0-.026,0-.038,0-.038l-102.506,58.6A14.66,14.66,0,0,1,233,157.457Z" transform="translate(0 -4.335)" fill="#3a3b3d"/><rect width="14.76" height="73.171" rx="7.38" transform="translate(79.282 160.438)" fill="#3a3b3d"/><rect width="14.76" height="73.171" rx="7.38" transform="translate(137.355 160.438)" fill="#3a3b3d"/><rect width="14.76" height="73.171" rx="7.38" transform="translate(240.321 79.887) rotate(90)" fill="#3a3b3d"/><rect width="14.76" height="73.171" rx="7.38" transform="translate(240.321 299.399) rotate(90)" fill="#3a3b3d"/><g transform="translate(98.009 179.23)"><circle cx="14.263" cy="14.263" r="14.263" transform="translate(3.659 3.659)" fill="#e6e9ee"/><path d="M141.189,233.575a14.263,14.263,0,1,1-14.263,14.263,14.263,14.263,0,0,1,14.263-14.263m0-3.659a17.922,17.922,0,1,0,17.922,17.922,17.942,17.942,0,0,0-17.922-17.922Z" transform="translate(-123.267 -229.916)" fill="#3a3c3d"/></g><g transform="translate(110.699 186.106)"><path d="M141.807,257.1l3.3-.4V243.491h-3.336v-2.238L149,239.94V256.7l3.3.4v2.345H141.807Z" transform="translate(-141.767 -239.94)" fill="#3a3b3d"/></g><g transform="translate(185.814 68.507)"><circle cx="14.263" cy="14.263" r="14.263" transform="translate(3.659 3.659)" fill="#e6e9ee"/><path d="M269.189,72.166a14.263,14.263,0,1,1-14.263,14.263,14.263,14.263,0,0,1,14.263-14.263m0-3.659a17.922,17.922,0,1,0,17.922,17.922,17.942,17.942,0,0,0-17.922-17.922Z" transform="translate(-251.267 -68.507)" fill="#3a3c3d"/></g><g transform="translate(197.086 75.102)"><path d="M268.01,97.91V95.351l6.311-6.766a15.272,15.272,0,0,0,1.943-2.646,4.3,4.3,0,0,0,.576-2,3.017,3.017,0,0,0-.663-2.017,2.33,2.33,0,0,0-1.883-.783,2.433,2.433,0,0,0-2.057.918,3.919,3.919,0,0,0-.7,2.445h-3.805l-.027-.08a5.9,5.9,0,0,1,1.735-4.468,6.51,6.51,0,0,1,4.857-1.829,6.8,6.8,0,0,1,4.743,1.567,5.371,5.371,0,0,1,1.728,4.18,5.9,5.9,0,0,1-.971,3.269,30.851,30.851,0,0,1-3.222,3.912l-3.47,3.791.027.067h5.065l.161-1.93h2.974V97.91Z" transform="translate(-267.7 -78.121)" fill="#3a3b3d"/></g><g transform="translate(185.814 287.333)"><circle cx="14.263" cy="14.263" r="14.263" transform="translate(3.659 3.659)" fill="#e6e9ee"/><path d="M269.189,391.166a14.263,14.263,0,1,1-14.263,14.263,14.263,14.263,0,0,1,14.263-14.263m0-3.659a17.922,17.922,0,1,0,17.922,17.922,17.942,17.942,0,0,0-17.922-17.922Z" transform="translate(-251.267 -387.507)" fill="#3a3c3d"/></g><g transform="translate(197.18 294.614)"><path d="M272.18,406.495h2.2a2.667,2.667,0,0,0,2.063-.73,2.892,2.892,0,0,0,.669-2.03,2.64,2.64,0,0,0-.669-1.889,2.541,2.541,0,0,0-1.943-.71,2.741,2.741,0,0,0-1.849.643,2.114,2.114,0,0,0-.75,1.688h-3.792l-.027-.08a4.439,4.439,0,0,1,1.755-3.778,7,7,0,0,1,4.556-1.487,7.493,7.493,0,0,1,4.83,1.447,4.988,4.988,0,0,1,1.8,4.127,4.142,4.142,0,0,1-.8,2.418,5.346,5.346,0,0,1-2.211,1.789,4.976,4.976,0,0,1,2.472,1.768,4.652,4.652,0,0,1,.851,2.773,5.069,5.069,0,0,1-1.95,4.214,7.826,7.826,0,0,1-4.99,1.534,7.638,7.638,0,0,1-4.669-1.441,4.6,4.6,0,0,1-1.882-4.066l.027-.081h3.791a2.4,2.4,0,0,0,.8,1.856,2.912,2.912,0,0,0,2.037.731,2.96,2.96,0,0,0,2.137-.75,2.686,2.686,0,0,0,.784-2.037,2.951,2.951,0,0,0-.77-2.258,3.226,3.226,0,0,0-2.271-.717h-2.2Z" transform="translate(-267.837 -398.121)" fill="#3a3b3d"/></g></g></svg>